<?xml version="1.0" ?><!DOCTYPE svg  PUBLIC '-//W3C//DTD SVG 1.1//EN'  'http://www.w3.org/Graphics/SVG/1.1/DTD/svg11.dtd'><svg height="512px" style="enable-background:new 0 0 512 512;" version="1.1" viewBox="0 0 512 512" width="512px" xml:space="preserve" xmlns="http://www.w3.org/2000/svg" xmlns:xlink="http://www.w3.org/1999/xlink"><g id="skype__x2C__social__x2C_media__x2C__icons"><g><path d="M425.619,86.35c-43.447-43.443-103.361-70.287-169.654-70.287    c-66.297,0-126.212,26.844-169.65,70.287c-43.452,43.438-70.286,103.356-70.286,169.654c0,66.285,26.834,126.209,70.286,169.657    c43.438,43.438,103.353,70.276,169.65,70.276c66.293,0,126.207-26.839,169.654-70.276    c43.443-43.448,70.277-103.372,70.277-169.657C495.896,189.706,469.063,129.787,425.619,86.35z M412.332,412.364    c-39.993,40.126-95.251,64.835-156.367,64.835c-61.121,0-116.379-24.709-156.372-64.835    c-40.117-39.984-64.831-95.252-64.831-156.36c0-61.116,24.714-116.379,64.831-156.368c39.993-40.121,95.251-64.835,156.372-64.835    c61.116,0,116.374,24.714,156.367,64.835c40.121,39.989,64.831,95.252,64.831,156.368    C477.163,317.112,452.453,372.38,412.332,412.364z" style="fill-rule:evenodd;clip-rule:evenodd;fill:#262626;"/><path d="M365.705,257.196c0-2.792,0-5.579-0.27-8.238    c-4.249-55.268-51.023-98.843-108.273-98.843c-6.251,0-12.492,0.407-18.605,1.462c-9.691-5.977-21.123-9.431-33.478-9.431    c-34.808,0-62.976,27.762-62.976,62.172c0,11.3,3.057,22.192,8.64,31.357c-0.795,3.852-1.457,7.836-1.859,11.692    c-0.132,3.317-0.397,6.502-0.397,9.828c0,59.121,48.629,107.083,108.676,107.083c6.78,0,13.414-0.672,19.921-1.864    c8.772,4.789,18.875,7.438,29.763,7.438c34.808,0,62.971-27.898,62.971-62.167c0-9.842-2.521-19.277-6.643-27.501    C364.9,272.605,365.705,265.034,365.705,257.196z M312.822,308.35c-4.916,6.908-12.354,12.482-21.918,16.608    c-9.695,3.852-20.99,5.707-34.145,5.707c-15.539,0-28.694-2.659-38.792-7.969c-7.311-3.993-13.287-9.047-17.938-15.682    c-4.515-6.501-6.776-13.021-6.776-19.4c0-3.983,1.33-7.164,4.523-10.088c2.787-2.659,6.771-4.126,11.291-4.126    c3.582,0,6.904,1.069,9.568,3.321c2.517,1.997,4.514,5.054,6.369,9.171c1.869,4.391,3.861,8.101,6.119,10.893    c2.124,2.659,5.181,5.186,9.028,7.041c4.117,1.864,9.303,2.659,15.814,2.659c9.028,0,16.467-1.855,21.918-5.584    c5.318-3.719,7.973-7.968,7.973-13.287c0-4.381-1.197-7.57-3.979-10.353c-3.193-2.659-7.046-4.656-11.701-6.246    c-4.917-1.467-11.688-3.189-19.926-4.789c-11.291-2.385-20.991-5.307-28.557-8.363c-7.708-3.317-13.954-7.836-18.605-13.557    c-1.462-1.854-2.659-3.847-3.715-5.977c-2.257-4.519-3.321-9.563-3.321-15.544c0-7.978,2.517-15.411,7.434-21.516    c4.916-6.383,11.829-11.162,21.123-14.355c9.033-3.587,19.661-5.182,31.755-5.182c9.837,0,18.336,1.197,25.514,3.321    c7.169,2.262,13.013,5.314,17.797,8.764c4.911,3.724,8.365,7.585,10.627,11.702c2.263,4.377,3.327,8.365,3.327,12.35    c0,3.852-1.463,7.311-4.392,10.234c-3.057,3.048-6.771,4.643-11.157,4.643c-3.984,0-7.174-0.918-9.298-2.782    c-1.992-1.86-4.259-4.519-6.507-8.641c-2.664-4.911-5.977-9.028-9.842-11.957c-3.582-2.654-9.691-3.979-18.062-3.979    c-7.836,0-14.219,1.59-18.871,4.651c-4.514,2.919-6.771,6.108-6.771,10.226c0,2.257,0.8,4.382,2.257,6.246    c1.6,1.722,3.724,3.454,6.511,4.916c2.919,1.32,5.716,2.385,8.635,3.185c0.667,0.265,1.197,0.265,1.86,0.407    c3.057,0.922,7.576,1.854,13.292,3.312c8.631,1.864,16.869,3.856,24.038,6.114c7.178,2.257,13.282,5.186,18.468,8.503    c5.318,3.189,9.431,7.57,12.223,12.617c2.929,5.187,4.382,11.564,4.382,19.003C320.394,293.34,317.871,301.299,312.822,308.35z" style="fill-rule:evenodd;clip-rule:evenodd;fill:#262626;"/></g></g><g id="Layer_1"/></svg>