<?xml version="1.0" standalone="no"?>
<!DOCTYPE svg PUBLIC "-//W3C//DTD SVG 20010904//EN"
 "http://www.w3.org/TR/2001/REC-SVG-20010904/DTD/svg10.dtd">
<svg version="1.0" xmlns="http://www.w3.org/2000/svg"
 width="310.000000pt" height="310.000000pt" viewBox="0 0 310.000000 310.000000"
 preserveAspectRatio="xMidYMid meet">
<metadata>
Created by potrace 1.14, written by Peter Selinger 2001-2017
</metadata>
<g transform="translate(0.000000,310.000000) scale(0.100000,-0.100000)"
fill="#000000" stroke="none">
<path d="M186 2869 c-42 -12 -81 -40 -106 -77 l-25 -36 -3 -1260 -2 -1261
1500 0 1500 0 -2 1261 -3 1260 -25 37 c-13 20 -43 46 -65 59 l-40 23 -1352 0
c-744 0 -1363 -3 -1377 -6z m2725 -138 c16 -19 19 -40 19 -116 0 -65 -4 -94
-12 -97 -7 -2 -627 -4 -1378 -4 l-1365 1 -3 95 c-3 103 7 137 42 142 12 2 619
3 1350 3 l1328 0 19 -24z m19 -1352 c0 -805 -3 -1018 -12 -1021 -11 -3 -2719
-3 -2740 1 -8 1 -11 2024 -4 2032 2 2 623 4 1380 4 l1376 0 0 -1016z"/>
<path d="M1764 2150 c-12 -4 -24 -14 -27 -22 -2 -7 -37 -92 -76 -188 -40 -96
-90 -220 -113 -275 -22 -55 -46 -113 -53 -130 -7 -16 -33 -79 -58 -140 -24
-60 -90 -221 -146 -357 -55 -136 -101 -255 -101 -266 0 -30 38 -64 63 -56 40
11 55 37 122 204 37 91 73 179 80 195 7 17 42 102 78 190 72 177 84 206 103
250 7 17 37 91 67 165 30 74 75 185 101 247 52 125 55 144 26 173 -22 22 -33
23 -66 10z"/>
<path d="M805 1690 c-261 -151 -264 -152 -271 -173 -15 -47 2 -61 208 -179
112 -64 216 -123 232 -131 54 -29 110 14 92 71 -4 11 -72 56 -169 111 -89 51
-166 97 -170 101 -5 4 68 52 162 105 94 54 174 102 177 107 3 5 7 20 9 34 3
27 -35 64 -64 63 -9 0 -101 -49 -206 -109z"/>
<path d="M2052 1779 c-12 -11 -22 -31 -22 -44 0 -29 19 -48 87 -86 171 -96
262 -152 258 -159 -2 -4 -19 -15 -37 -25 -18 -9 -42 -22 -53 -28 -12 -7 -71
-41 -133 -76 -114 -66 -132 -85 -118 -129 8 -24 44 -40 72 -33 11 3 118 62
238 130 222 127 237 140 222 188 -6 20 -422 265 -468 276 -17 5 -31 0 -46 -14z"/>
</g>
</svg>
