<svg xmlns="http://www.w3.org/2000/svg" viewBox="0 0 34.61 32.95"><defs><style>.cls-1{fill:#d3d3d3;fill-rule:evenodd;}</style></defs><title>testimonial_apostropheldpi</title><g id="Layer_2" data-name="Layer 2"><g id="Layer_1-2" data-name="Layer 1"><path class="cls-1" d="M0,30A3,3,0,0,0,3,33h9.57A2.94,2.94,0,0,0,15.46,30V18.22a2.94,2.94,0,0,0-2.94-2.94H7.79a1.47,1.47,0,0,1-1.47-1.47,1.56,1.56,0,0,1,.06-.45,11.87,11.87,0,0,1,7.28-7.69h0A2.95,2.95,0,0,0,11.4.22l-.13.05A17.7,17.7,0,0,0,0,16.75Zm19.15,0A2.94,2.94,0,0,0,22.09,33h9.57A3,3,0,0,0,34.61,30V18.22a3,3,0,0,0-2.95-2.94H26.94a1.47,1.47,0,0,1-1.48-1.47,1.29,1.29,0,0,1,.07-.45A11.83,11.83,0,0,1,32.8,5.67h0A2.95,2.95,0,0,0,31.66,0a3,3,0,0,0-1.12.22l-.13.05A17.69,17.69,0,0,0,19.15,16.75Z"/></g></g></svg>